<!--?xml version="1.0" standalone="no"?-->
              <svg id="sw-js-blob-svg" viewBox="0 0 100 100" xmlns="http://www.w3.org/2000/svg" version="1.1">
                    <defs> 
                        <linearGradient id="sw-gradient" x1="0" x2="1" y1="1" y2="0">
                            <stop id="stop1" stop-color="rgba(237, 20, 61, 1)" offset="0%"></stop>
                            <stop id="stop2" stop-color="rgba(232, 100, 94, 1)" offset="100%"></stop>
                        </linearGradient>
                    </defs>
                <path fill="url(#sw-gradient)" d="M22.3,-28.3C27.8,-22,30.2,-13.9,31.2,-5.9C32.2,2.2,31.7,10.1,27.9,15.6C24.2,21.2,17.1,24.3,9.9,26.8C2.7,29.2,-4.6,31,-12.9,30.3C-21.2,29.5,-30.5,26.3,-36,19.5C-41.4,12.7,-43,2.4,-40.6,-6.5C-38.3,-15.5,-32,-23.1,-24.6,-28.9C-17.2,-34.8,-8.6,-38.9,-0.1,-38.9C8.4,-38.8,16.9,-34.5,22.3,-28.3Z" width="100%" height="100%" transform="translate(50 50)" stroke-width="0" style="transition: all 0.3s ease 0s;"></path>
              </svg>